<svg width="53" height="53" viewBox="0 0 53 53" fill="none" xmlns="http://www.w3.org/2000/svg">
<path d="M28.978 44.2281C42.0345 43.4872 52.3486 36.0449 52.4966 26.8303C52.5409 24.3288 51.8161 21.8426 50.3696 19.5345C47.8622 23.5877 44.5944 27.9791 40.8023 32.359C37.1005 36.6389 32.992 40.7537 28.978 44.2281ZM39.2214 2.57199C37.537 3.40831 35.6734 4.54648 33.7008 5.93683C35.4145 6.23571 37.0889 6.63648 38.7049 7.13459C43.1091 4.28812 45.4561 3.87078 45.9138 3.98276C46.24 4.19115 46.9037 5.73053 45.2975 9.87948C45.0673 10.4737 44.788 11.1234 44.4595 11.8284C44.2473 12.2828 44.0188 12.746 43.7738 13.2182C42.5386 12.4505 41.2016 11.7644 39.7806 11.1692C39.7381 11.1512 39.6955 11.1323 39.6515 11.1143C35.7504 9.50057 31.315 8.61293 26.7872 8.53983C25.8498 8.52436 24.9124 8.5432 23.9792 8.59627C10.9401 9.3588 0.651232 16.7944 0.503372 25.9947C0.43744 29.8984 2.23903 33.7246 5.63097 36.8848C7.68405 38.8001 10.2605 40.4233 13.2134 41.6618C13.2559 41.6788 13.2985 41.6977 13.341 41.7157C14.766 42.3047 16.268 42.7992 17.8265 43.1926C17.3409 43.5633 16.8589 43.9209 16.3806 44.2653C15.6332 44.8008 14.9415 45.2752 14.2891 45.6964C9.77122 48.6274 7.49816 48.9484 7.08018 48.8473C6.72478 48.6221 6.14371 46.9937 7.69942 42.9526C6.30493 42.1959 5.00555 41.3595 3.81545 40.4524C2.95603 42.3543 2.37597 44.0646 2.10898 45.5088C1.5389 48.6211 2.39971 50.6776 4.67163 51.6232C5.49055 51.9655 6.89018 52.3039 8.89164 51.9673C11.8634 51.4696 15.4899 49.5837 19.3007 46.8933C20.5156 46.0362 21.7481 45.0982 22.9861 44.0962C23.8843 43.3671 24.7919 42.6016 25.694 41.8137C26.2935 41.2877 26.8931 40.7505 27.4929 40.2021C28.0927 39.6538 28.6817 39.0978 29.2601 38.5342C31.9027 35.9957 34.4443 33.3092 36.728 30.6714C37.557 29.7137 38.3603 28.7569 39.1381 27.801C39.9158 26.8452 40.6604 25.8966 41.3719 24.9552C43.0325 22.7574 44.5327 20.6027 45.8232 18.5401C46.3772 17.6558 46.8915 16.7902 47.366 15.9433C48.0383 14.7463 48.6316 13.5898 49.134 12.4866L49.1845 12.3757C50.3579 9.78101 50.9886 7.58797 51.0622 5.85628L51.0651 5.67958C51.1004 3.48205 50.1819 1.9782 48.3297 1.20896C46.0374 0.248794 42.9716 0.708417 39.2214 2.57199Z" fill="#C8ACD6"/>
</svg>
